# Blender 4.3.2
# www.blender.org
mtllib heart.mtl
o Heart_2_Cube.004
v -0.002925 0.310300 0.977252
v -1.151308 0.310300 -0.178989
v 0.003882 0.310300 -1.074830
v -1.124951 0.310300 -1.253262
v -1.090146 0.310300 -1.281855
v -1.053433 0.310300 -1.308337
v -1.015132 0.310300 -1.332458
v -0.975390 0.310300 -1.354129
v -0.934367 0.310300 -1.373260
v -0.892220 0.310300 -1.389778
v -0.849119 0.310300 -1.403617
v -0.805237 0.310300 -1.414723
v -0.760740 0.310300 -1.423050
v -0.715808 0.310300 -1.428567
v -0.670615 0.310300 -1.431252
v -0.625347 0.310300 -1.431095
v -0.580176 0.310300 -1.428094
v -0.535278 0.310300 -1.422264
v -0.490839 0.310300 -1.413626
v -0.447025 0.310300 -1.402215
v -0.404017 0.310300 -1.388075
v -0.361982 0.310300 -1.371263
v -0.321079 0.310300 -1.351842
v -0.281480 0.310300 -1.329895
v -0.243336 0.310300 -1.305503
v -0.206797 0.310300 -1.278764
v -0.172011 0.310300 -1.249786
v -0.136275 0.310300 -1.215978
v -1.196290 0.310300 -1.182408
v -1.225122 0.310300 -1.147796
v -1.251852 0.310300 -1.111267
v -1.276235 0.310300 -1.073132
v -1.298175 0.310300 -1.033538
v -1.317587 0.310300 -0.992645
v -1.334391 0.310300 -0.950613
v -1.348523 0.310300 -0.907607
v -1.359928 0.310300 -0.863800
v -1.368559 0.310300 -0.819360
v -1.374382 0.310300 -0.774470
v -1.377375 0.310300 -0.729299
v -1.377526 0.310300 -0.684025
v -1.374835 0.310300 -0.638835
v -1.369310 0.310300 -0.593903
v -1.360976 0.310300 -0.549403
v -1.349862 0.310300 -0.505513
v -1.336017 0.310300 -0.462409
v -1.319491 0.310300 -0.420256
v -1.300352 0.310300 -0.379226
v -1.278674 0.310300 -0.339476
v -1.254545 0.310300 -0.301169
v -1.228055 0.310300 -0.264450
v -1.199311 0.310300 -0.229463
v -1.165749 0.310300 -0.193499
v 0.298022 0.310300 0.678349
v -0.726600 0.310300 0.248625
v -0.301892 0.310300 0.676241
v -0.301892 0.310300 0.676241
v 0.298022 0.310300 0.678349
v -0.002925 0.310300 0.977252
v -0.002925 0.310300 0.977252
v -1.161647 0.310300 -1.218868
v -0.154143 0.310300 -1.232882
v -0.468932 0.310300 -1.407920
v -0.827178 0.310300 -1.409170
v -1.325989 0.310300 -0.971629
v -1.372073 0.310300 -0.616369
v -1.241300 0.310300 -0.282810
v -0.514246 0.310300 0.462433
v -0.425521 0.310300 -1.395145
v -0.782989 0.310300 -1.418886
v -1.107549 0.310300 -1.267559
v -1.341457 0.310300 -0.929110
v -1.365143 0.310300 -0.571653
v -1.213683 0.310300 -0.246956
v -0.301892 0.310300 0.676241
v -0.383000 0.310300 -1.379669
v -0.738274 0.310300 -1.425809
v -1.071790 0.310300 -1.295096
v -1.178969 0.310300 -1.200638
v -1.210706 0.310300 -1.165102
v -1.354226 0.310300 -0.885704
v -1.355419 0.310300 -0.527458
v -1.182530 0.310300 -0.211481
v -0.341530 0.310300 -1.361553
v -0.693212 0.310300 -1.429910
v -1.034283 0.310300 -1.320398
v -1.364244 0.310300 -0.841580
v -1.342940 0.310300 -0.483961
v -0.995261 0.310300 -1.343294
v -0.301279 0.310300 -1.340869
v -0.647981 0.310300 -1.431174
v -1.238487 0.310300 -1.129531
v -1.371471 0.310300 -0.796915
v -1.327754 0.310300 -0.441333
v -0.002925 0.310300 0.977252
v -0.002925 0.310300 0.977252
v -0.262408 0.310300 -1.317699
v -0.602762 0.310300 -1.429595
v -0.954879 0.310300 -1.363695
v -1.264043 0.310300 -1.092199
v -1.375879 0.310300 -0.751884
v -1.309921 0.310300 -0.399741
v -0.152408 0.310300 0.826746
v -0.938954 0.310300 0.034818
v -0.225066 0.310300 -1.292134
v -0.557727 0.310300 -1.425179
v -0.913294 0.310300 -1.381519
v -1.287205 0.310300 -1.053335
v -1.377451 0.310300 -0.706662
v -1.289513 0.310300 -0.359351
v -1.158529 0.310300 -0.186244
v -0.066197 0.310300 -1.145404
v -0.189404 0.310300 -1.264275
v -0.513059 0.310300 -1.417945
v -0.870670 0.310300 -1.396698
v -1.307881 0.310300 -1.013092
v -1.376181 0.310300 -0.661430
v -1.266609 0.310300 -0.320323
v -1.143299 0.310300 -1.236065
v -0.154143 0.320300 -1.232882
v -0.136275 0.320300 -1.215978
v -0.468932 0.320300 -1.407920
v -0.447025 0.320300 -1.402215
v -0.827178 0.320300 -1.409170
v -0.805237 0.320300 -1.414723
v -1.325989 0.320300 -0.971629
v -1.317587 0.320300 -0.992645
v -1.372073 0.320300 -0.616369
v -1.374835 0.320300 -0.638835
v -1.241300 0.320300 -0.282810
v -1.254545 0.320300 -0.301169
v -0.514246 0.320300 0.462433
v -0.726600 0.320300 0.248625
v -0.425521 0.320300 -1.395145
v -0.404017 0.320300 -1.388075
v -0.782989 0.320300 -1.418886
v -0.760740 0.320300 -1.423050
v -1.107549 0.320300 -1.267559
v -1.090146 0.320300 -1.281855
v -1.341457 0.320300 -0.929110
v -1.334391 0.320300 -0.950613
v -1.365143 0.320300 -0.571653
v -1.369310 0.320300 -0.593903
v -1.213683 0.320300 -0.246956
v -1.228055 0.320300 -0.264450
v -0.301892 0.320300 0.676241
v -0.301892 0.320300 0.676241
v -0.383000 0.320300 -1.379669
v -0.361982 0.320300 -1.371263
v -0.738274 0.320300 -1.425809
v -0.715808 0.320300 -1.428567
v -1.071790 0.320300 -1.295096
v -1.053433 0.320300 -1.308337
v -1.178969 0.320300 -1.200638
v -1.161647 0.320300 -1.218868
v -1.210706 0.320300 -1.165102
v -1.196290 0.320300 -1.182408
v -1.354226 0.320300 -0.885704
v -1.348523 0.320300 -0.907607
v -1.355419 0.320300 -0.527458
v -1.360976 0.320300 -0.549403
v -1.182530 0.320300 -0.211481
v -1.199311 0.320300 -0.229463
v -0.341530 0.320300 -1.361553
v -0.321079 0.320300 -1.351842
v -0.693212 0.320300 -1.429910
v -0.670615 0.320300 -1.431252
v -1.034283 0.320300 -1.320398
v -1.015132 0.320300 -1.332458
v -1.364244 0.320300 -0.841580
v -1.359928 0.320300 -0.863800
v -1.342940 0.320300 -0.483961
v -1.349862 0.320300 -0.505513
v -0.995261 0.320300 -1.343294
v -0.975390 0.320300 -1.354129
v -0.301279 0.320300 -1.340869
v -0.281480 0.320300 -1.329895
v -0.647981 0.320300 -1.431174
v -0.625347 0.320300 -1.431095
v -1.238487 0.320300 -1.129531
v -1.225122 0.320300 -1.147796
v -1.371471 0.320300 -0.796915
v -1.368559 0.320300 -0.819360
v -1.327754 0.320300 -0.441333
v -1.336017 0.320300 -0.462409
v -0.002925 0.320300 0.977252
v -0.002925 0.320300 0.977252
v -0.002925 0.320300 0.977252
v -0.002925 0.320300 0.977252
v -0.262408 0.320300 -1.317699
v -0.243336 0.320300 -1.305503
v -0.602762 0.320300 -1.429595
v -0.580176 0.320300 -1.428094
v -0.954879 0.320300 -1.363695
v -0.934367 0.320300 -1.373260
v -1.264043 0.320300 -1.092199
v -1.251852 0.320300 -1.111267
v -1.375879 0.320300 -0.751884
v -1.374382 0.320300 -0.774470
v -1.309921 0.320300 -0.399741
v -1.319491 0.320300 -0.420256
v -0.152408 0.320300 0.826746
v -0.301892 0.320300 0.676241
v -0.938954 0.320300 0.034818
v -1.151308 0.320300 -0.178989
v -0.225066 0.320300 -1.292134
v -0.206797 0.320300 -1.278764
v -0.557727 0.320300 -1.425179
v -0.535278 0.320300 -1.422264
v -0.913294 0.320300 -1.381519
v -0.892220 0.320300 -1.389778
v -1.287205 0.320300 -1.053335
v -1.276235 0.320300 -1.073132
v -1.377451 0.320300 -0.706662
v -1.377375 0.320300 -0.729299
v -1.289513 0.320300 -0.359351
v -1.300352 0.320300 -0.379226
v -1.158529 0.320300 -0.186244
v -1.165749 0.320300 -0.193499
v -0.066197 0.320300 -1.145404
v 0.003882 0.320300 -1.074830
v -0.189404 0.320300 -1.264275
v -0.172011 0.320300 -1.249786
v -0.513059 0.320300 -1.417945
v -0.490839 0.320300 -1.413626
v -0.870670 0.320300 -1.396698
v -0.849119 0.320300 -1.403617
v -1.307881 0.320300 -1.013092
v -1.298175 0.320300 -1.033538
v -1.376181 0.320300 -0.661430
v -1.377526 0.320300 -0.684025
v -1.266609 0.320300 -0.320323
v -1.278674 0.320300 -0.339476
v -1.143299 0.320300 -1.236065
v -1.124951 0.320300 -1.253262
v -0.002925 0.320300 0.977252
vn 0.5767 -0.5767 0.5786
vn -0.0000 -1.0000 -0.0000
vn 0.7183 -0.6303 -0.2947
vn 0.5767 0.5767 0.5786
vn 0.7183 0.6303 -0.2947
vn -0.0000 1.0000 -0.0000
vn 0.7096 -0.0000 -0.7046
vn 0.1288 -0.0000 -0.9917
vn 0.0976 -0.0000 -0.9952
vn 0.6640 -0.0000 -0.7477
vn 0.6401 -0.0000 -0.7683
vn 0.6985 -0.0000 -0.7156
vn 0.6872 -0.0000 -0.7264
vn -0.3649 -0.0000 -0.9310
vn -0.3940 -0.0000 -0.9191
vn 0.2215 -0.0000 -0.9752
vn 0.1908 -0.0000 -0.9816
vn 0.2823 -0.0000 -0.9593
vn 0.2521 -0.0000 -0.9677
vn -0.8747 -0.0000 -0.4847
vn -0.8895 -0.0000 -0.4570
vn -0.2757 -0.0000 -0.9613
vn -0.3057 -0.0000 -0.9521
vn -0.2148 -0.0000 -0.9767
vn -0.2453 -0.0000 -0.9694
vn -1.0000 -0.0000 -0.0033
vn -0.9996 -0.0000 0.0281
vn -0.9034 -0.0000 -0.4288
vn -0.9164 -0.0000 -0.4002
vn -0.9285 -0.0000 -0.3712
vn -0.8779 -0.0000 0.4788
vn -0.8625 -0.0000 0.5061
vn -0.9982 -0.0000 0.0595
vn -0.9959 -0.0000 0.0908
vn -0.9925 -0.0000 0.1220
vn -0.7088 -0.0000 0.7054
vn -0.7092 -0.0000 0.7051
vn -0.8461 -0.0000 0.5330
vn -0.8290 -0.0000 0.5593
vn -0.8110 -0.0000 0.5851
vn -0.6597 -0.0000 -0.7516
vn -0.6839 -0.0000 -0.7296
vn -0.7095 -0.0000 0.7047
vn 0.6156 -0.0000 -0.7881
vn 0.3420 -0.0000 -0.9397
vn 0.3123 -0.0000 -0.9500
vn 0.1599 -0.0000 -0.9871
vn -0.1530 -0.0000 -0.9882
vn -0.1840 -0.0000 -0.9829
vn -0.3355 -0.0000 -0.9421
vn -0.6102 -0.0000 -0.7922
vn -0.6348 -0.0000 -0.7727
vn -0.9397 -0.0000 -0.3419
vn -0.9500 -0.0000 -0.3122
vn -0.9882 -0.0000 0.1531
vn -0.9829 -0.0000 0.1841
vn -0.7922 -0.0000 0.6102
vn -0.7727 -0.0000 0.6348
vn -0.7047 -0.0000 -0.7095
vn -0.3843 -0.0000 0.9232
vn -0.0000 -0.0000 1.0000
vn 0.4003 -0.0000 -0.9164
vn 0.3714 -0.0000 -0.9285
vn -0.0906 -0.0000 -0.9959
vn -0.1219 -0.0000 -0.9925
vn -0.5592 -0.0000 -0.8290
vn -0.5850 -0.0000 -0.8110
vn -0.9594 -0.0000 -0.2822
vn -0.7249 -0.0000 -0.6888
vn -0.9766 -0.0000 0.2149
vn -0.7470 -0.0000 -0.6648
vn -0.7683 -0.0000 -0.6400
vn -0.7523 -0.0000 0.6589
vn -0.9677 -0.0000 -0.2519
vn -0.9694 -0.0000 0.2455
vn -0.7311 -0.0000 0.6823
vn 0.4571 -0.0000 -0.8894
vn 0.4289 -0.0000 -0.9033
vn -0.0279 -0.0000 -0.9996
vn -0.0593 -0.0000 -0.9982
vn -0.5061 -0.0000 -0.8625
vn -0.5329 -0.0000 -0.8462
vn -0.7881 -0.0000 -0.6156
vn -0.9752 -0.0000 -0.2214
vn -0.9817 -0.0000 -0.1907
vn -0.9612 -0.0000 0.2758
vn -0.9521 -0.0000 0.3058
vn -0.4509 -0.0000 -0.8926
vn -0.4787 -0.0000 -0.8780
vn -0.7200 -0.0000 0.6939
vn 0.5120 -0.0000 -0.8590
vn 0.4848 -0.0000 -0.8746
vn 0.0349 -0.0000 -0.9994
vn 0.0035 -0.0000 -1.0000
vn -0.8070 -0.0000 -0.5905
vn -0.9872 -0.0000 -0.1597
vn -0.9917 -0.0000 -0.1286
vn -0.9420 -0.0000 0.3356
vn -0.9310 -0.0000 0.3650
vn 0.5649 -0.0000 -0.8251
vn 0.5387 -0.0000 -0.8425
vn 0.0663 -0.0000 -0.9978
vn -0.8252 -0.0000 -0.5649
vn -0.4226 -0.0000 -0.9063
vn -0.9952 -0.0000 -0.0974
vn -0.8425 -0.0000 -0.5387
vn -0.9191 -0.0000 0.3941
vn -0.9978 -0.0000 -0.0661
vn -0.9063 -0.0000 0.4227
vn 0.5906 -0.0000 -0.8070
vn -0.8590 -0.0000 -0.5119
vn -0.9994 -0.0000 -0.0347
vn -0.8925 -0.0000 0.4510
vt 0.400575 0.479284
vt 0.400585 0.479326
vt 0.400594 0.479368
vt 0.430326 0.481009
vt 0.460077 0.482734
vt 0.501993 0.484569
vt 0.543910 0.486403
vt 0.580954 0.488683
vt 0.617999 0.490963
vt 0.618742 0.491064
vt 0.619484 0.491165
vt 0.620994 0.491389
vt 0.622504 0.491613
vt 0.623621 0.491785
vt 0.624738 0.491957
vt 0.625701 0.492104
vt 0.626664 0.492251
vt 0.627561 0.492379
vt 0.628458 0.492508
vt 0.629355 0.492621
vt 0.630252 0.492735
vt 0.631200 0.492838
vt 0.632148 0.492941
vt 0.633194 0.493034
vt 0.634241 0.493127
vt 0.635440 0.493212
vt 0.636640 0.493298
vt 0.638068 0.493377
vt 0.639496 0.493456
vt 0.641256 0.493529
vt 0.643016 0.493602
vt 0.645226 0.493670
vt 0.647436 0.493738
vt 0.650154 0.493802
vt 0.652873 0.493866
vt 0.655980 0.493925
vt 0.659088 0.493985
vt 0.662328 0.494042
vt 0.665568 0.494098
vt 0.668756 0.494152
vt 0.671945 0.494205
vt 0.675049 0.494256
vt 0.678153 0.494307
vt 0.681208 0.494356
vt 0.684263 0.494404
vt 0.687310 0.494451
vt 0.690357 0.494498
vt 0.693419 0.494543
vt 0.696481 0.494588
vt 0.699571 0.494633
vt 0.702660 0.494677
vt 0.705778 0.494720
vt 0.708896 0.494763
vt 0.712040 0.494806
vt 0.715183 0.494848
vt 0.718346 0.494890
vt 0.721509 0.494933
vt 0.724666 0.494975
vt 0.727824 0.495016
vt 0.731352 0.495064
vt 0.734879 0.495112
vt 0.738420 0.495169
vt 0.741962 0.495226
vt 0.745116 0.495280
vt 0.748271 0.495333
vt 0.751415 0.495389
vt 0.754559 0.495445
vt 0.757669 0.495505
vt 0.760778 0.495565
vt 0.763849 0.495630
vt 0.766920 0.495694
vt 0.769949 0.495765
vt 0.772977 0.495836
vt 0.775967 0.495914
vt 0.778956 0.495992
vt 0.781918 0.496080
vt 0.784879 0.496167
vt 0.787838 0.496265
vt 0.790796 0.496364
vt 0.793792 0.496475
vt 0.796789 0.496587
vt 0.799862 0.496714
vt 0.802934 0.496841
vt 0.806050 0.496987
vt 0.809165 0.497132
vt 0.812135 0.497298
vt 0.815106 0.497465
vt 0.817664 0.497655
vt 0.820223 0.497845
vt 0.822239 0.498061
vt 0.824255 0.498277
vt 0.825772 0.498518
vt 0.827288 0.498759
vt 0.828402 0.499020
vt 0.829516 0.499280
vt 0.830293 0.499545
vt 0.831070 0.499809
vt 0.831514 0.500039
vt 0.831958 0.500268
vt 0.831992 0.500377
vt 0.832025 0.500486
vt 0.831443 0.500296
vt 0.830862 0.500106
vt 0.829243 0.499258
vt 0.827624 0.498410
vt 0.824207 0.496249
vt 0.820789 0.494088
vt 0.814451 0.489642
vt 0.808114 0.485197
vt 0.796867 0.476888
vt 0.785620 0.468579
vt 0.727676 0.427598
vt 0.669732 0.386618
s 1
usemtl Material.001
f 60/1/1 95/2/2 1/3/2 96/2/2 59/1/2 103/4/2 57/5/2 75/5/2 56/5/2 68/6/2 55/7/2 104/8/2 2/9/2 111/10/2 53/11/2 83/12/2 52/13/2 74/14/2 51/15/2 67/16/2 50/17/2 118/18/2 49/19/2 110/20/2 48/21/2 102/22/2 47/23/2 94/24/2 46/25/2 88/26/2 45/27/2 82/28/2 44/29/2 73/30/2 43/31/2 66/32/2 42/33/2 117/34/2 41/35/2 109/36/2 40/37/2 101/38/2 39/39/2 93/40/2 38/41/2 87/42/2 37/43/2 81/44/2 36/45/2 72/46/2 35/47/2 65/48/2 34/49/2 116/50/2 33/51/2 108/52/2 32/53/2 100/54/2 31/55/2 92/56/2 30/57/2 80/58/2 29/59/2 79/60/2 61/61/2 119/62/2 4/63/2 71/64/2 5/65/2 78/66/2 6/67/2 86/68/2 7/69/2 89/70/2 8/71/2 99/72/2 9/73/2 107/74/2 10/75/2 115/76/2 11/77/2 64/78/2 12/79/2 70/80/2 13/81/2 77/82/2 14/83/2 85/84/2 15/85/2 91/86/2 16/87/2 98/88/2 17/89/2 106/90/2 18/91/2 114/92/2 19/93/2 63/94/2 20/95/2 69/96/2 21/97/2 76/98/2 22/99/2 84/100/2 23/101/2 90/102/2 24/103/2 97/104/2 25/105/2 105/106/2 26/107/2 113/108/2 27/109/2 62/110/2 28/111/2 112/112/2 3/113/3
f 236/1/4 221/113/5 220/112/6 121/111/6 120/110/6 223/109/6 222/108/6 207/107/6 206/106/6 191/105/6 190/104/6 177/103/6 176/102/6 165/101/6 164/100/6 149/99/6 148/98/6 135/97/6 134/96/6 123/95/6 122/94/6 225/93/6 224/92/6 209/91/6 208/90/6 193/89/6 192/88/6 179/87/6 178/86/6 167/85/6 166/84/6 151/83/6 150/82/6 137/81/6 136/80/6 125/79/6 124/78/6 227/77/6 226/76/6 211/75/6 210/74/6 195/73/6 194/72/6 175/71/6 174/70/6 169/69/6 168/68/6 153/67/6 152/66/6 139/65/6 138/64/6 235/63/6 234/62/6 155/61/6 154/60/6 157/59/6 156/58/6 181/57/6 180/56/6 197/55/6 196/54/6 213/53/6 212/52/6 229/51/6 228/50/6 127/49/6 126/48/6 141/47/6 140/46/6 159/45/6 158/44/6 171/43/6 170/42/6 183/41/6 182/40/6 199/39/6 198/38/6 215/37/6 214/36/6 231/35/6 230/34/6 129/33/6 128/32/6 143/31/6 142/30/6 161/29/6 160/28/6 173/27/6 172/26/6 185/25/6 184/24/6 201/23/6 200/22/6 217/21/6 216/20/6 233/19/6 232/18/6 131/17/6 130/16/6 145/15/6 144/14/6 163/13/6 162/12/6 219/11/6 218/10/6 205/9/6 204/8/6 133/7/6 132/6/6 147/5/6 146/5/6 203/5/6 202/4/6 189/1/6 188/2/6 187/3/6 186/2/6
f 3/113/3 112/112/7 220/112/7 221/113/5
f 106/90/8 17/89/9 193/89/9 208/90/8
f 27/109/10 113/108/11 222/108/11 223/109/10
f 28/111/12 62/110/13 120/110/13 121/111/12
f 107/74/14 9/73/15 195/73/15 210/74/14
f 19/93/16 114/92/17 224/92/17 225/93/16
f 20/95/18 63/94/19 122/94/19 123/95/18
f 108/52/20 33/51/21 229/51/21 212/52/20
f 11/77/22 115/76/23 226/76/23 227/77/22
f 12/79/24 64/78/25 124/78/25 125/79/24
f 109/36/26 41/35/27 231/35/27 214/36/26
f 33/51/21 116/50/28 228/50/28 229/51/21
f 34/49/29 65/48/30 126/48/30 127/49/29
f 110/20/31 49/19/32 233/19/32 216/20/31
f 41/35/27 117/34/33 230/34/33 231/35/27
f 42/33/34 66/32/35 128/32/35 129/33/34
f 111/10/36 2/9/37 205/9/37 218/10/36
f 49/19/32 118/18/38 232/18/38 233/19/32
f 50/17/39 67/16/40 130/16/40 131/17/39
f 112/112/7 28/111/12 121/111/12 220/112/7
f 4/63/41 119/62/42 234/62/42 235/63/41
f 55/7/43 68/6/43 132/6/43 133/7/43
f 113/108/11 26/107/44 207/107/44 222/108/11
f 62/110/13 27/109/10 223/109/10 120/110/13
f 21/97/45 69/96/46 134/96/46 135/97/45
f 114/92/17 18/91/47 209/91/47 224/92/17
f 63/94/19 19/93/16 225/93/16 122/94/19
f 13/81/48 70/80/49 136/80/49 137/81/48
f 115/76/23 10/75/50 211/75/50 226/76/23
f 64/78/25 11/77/22 227/77/22 124/78/25
f 5/65/51 71/64/52 138/64/52 139/65/51
f 116/50/28 34/49/29 127/49/29 228/50/28
f 65/48/30 35/47/53 141/47/53 126/48/30
f 35/47/53 72/46/54 140/46/54 141/47/53
f 117/34/33 42/33/34 129/33/34 230/34/33
f 66/32/35 43/31/55 143/31/55 128/32/35
f 43/31/55 73/30/56 142/30/56 143/31/55
f 118/18/38 50/17/39 131/17/39 232/18/38
f 67/16/40 51/15/57 145/15/57 130/16/40
f 51/15/57 74/14/58 144/14/58 145/15/57
f 119/62/42 61/61/59 155/61/59 234/62/42
f 68/6/43 56/5/60 147/5/60 132/6/43
f 56/5/60 75/5/61 146/5/61 147/5/60
f 60/1/1 3/113/3 221/113/5 236/1/4
f 69/96/46 20/95/18 123/95/18 134/96/46
f 22/99/62 76/98/63 148/98/63 149/99/62
f 70/80/49 12/79/24 125/79/24 136/80/49
f 14/83/64 77/82/65 150/82/65 151/83/64
f 71/64/52 4/63/41 235/63/41 138/64/52
f 6/67/66 78/66/67 152/66/67 153/67/66
f 72/46/54 36/45/68 159/45/68 140/46/54
f 61/61/59 79/60/69 154/60/69 155/61/59
f 73/30/56 44/29/70 161/29/70 142/30/56
f 29/59/71 80/58/72 156/58/72 157/59/71
f 74/14/58 52/13/73 163/13/73 144/14/58
f 36/45/68 81/44/74 158/44/74 159/45/68
f 75/5/61 57/5/60 203/5/60 146/5/61
f 44/29/70 82/28/75 160/28/75 161/29/70
f 76/98/63 21/97/45 135/97/45 148/98/63
f 52/13/73 83/12/76 162/12/76 163/13/73
f 77/82/65 13/81/48 137/81/48 150/82/65
f 23/101/77 84/100/78 164/100/78 165/101/77
f 78/66/67 5/65/51 139/65/51 152/66/67
f 15/85/79 85/84/80 166/84/80 167/85/79
f 79/60/69 29/59/71 157/59/71 154/60/69
f 7/69/81 86/68/82 168/68/82 169/69/81
f 80/58/72 30/57/83 181/57/83 156/58/72
f 37/43/84 87/42/85 170/42/85 171/43/84
f 81/44/74 37/43/84 171/43/84 158/44/74
f 45/27/86 88/26/87 172/26/87 173/27/86
f 82/28/75 45/27/86 173/27/86 160/28/75
f 8/71/88 89/70/89 174/70/89 175/71/88
f 83/12/76 53/11/90 219/11/90 162/12/76
f 24/103/91 90/102/92 176/102/92 177/103/91
f 84/100/78 22/99/62 149/99/62 164/100/78
f 16/87/93 91/86/94 178/86/94 179/87/93
f 85/84/80 14/83/64 151/83/64 166/84/80
f 30/57/83 92/56/95 180/56/95 181/57/83
f 86/68/82 6/67/66 153/67/66 168/68/82
f 38/41/96 93/40/97 182/40/97 183/41/96
f 87/42/85 38/41/96 183/41/96 170/42/85
f 46/25/98 94/24/99 184/24/99 185/25/98
f 88/26/87 46/25/98 185/25/98 172/26/87
f 1/3/61 95/2/61 186/2/61 187/3/61
f 89/70/89 7/69/81 169/69/81 174/70/89
f 59/1/60 96/2/61 188/2/61 189/1/60
f 90/102/92 23/101/77 165/101/77 176/102/92
f 25/105/100 97/104/101 190/104/101 191/105/100
f 91/86/94 15/85/79 167/85/79 178/86/94
f 17/89/9 98/88/102 192/88/102 193/89/9
f 92/56/95 31/55/103 197/55/103 180/56/95
f 9/73/15 99/72/104 194/72/104 195/73/15
f 93/40/97 39/39/105 199/39/105 182/40/97
f 31/55/103 100/54/106 196/54/106 197/55/103
f 94/24/99 47/23/107 201/23/107 184/24/99
f 39/39/105 101/38/108 198/38/108 199/39/105
f 95/2/61 60/1/1 236/1/4 186/2/61
f 47/23/107 102/22/109 200/22/109 201/23/107
f 96/2/61 1/3/61 187/3/61 188/2/61
f 57/5/60 103/4/43 202/4/43 203/5/60
f 97/104/101 24/103/91 177/103/91 190/104/101
f 2/9/37 104/8/43 204/8/43 205/9/37
f 98/88/102 16/87/93 179/87/93 192/88/102
f 26/107/44 105/106/110 206/106/110 207/107/44
f 99/72/104 8/71/88 175/71/88 194/72/104
f 18/91/47 106/90/8 208/90/8 209/91/47
f 100/54/106 32/53/111 213/53/111 196/54/106
f 10/75/50 107/74/14 210/74/14 211/75/50
f 101/38/108 40/37/112 215/37/112 198/38/108
f 32/53/111 108/52/20 212/52/20 213/53/111
f 102/22/109 48/21/113 217/21/113 200/22/109
f 40/37/112 109/36/26 214/36/26 215/37/112
f 103/4/43 59/1/60 189/1/60 202/4/43
f 48/21/113 110/20/31 216/20/31 217/21/113
f 104/8/43 55/7/43 133/7/43 204/8/43
f 53/11/90 111/10/36 218/10/36 219/11/90
f 105/106/110 25/105/100 191/105/100 206/106/110
